<svg width="1280" height="720" xmlns="http://www.w3.org/2000/svg" xmlns:xlink="http://www.w3.org/1999/xlink" overflow="hidden"><defs><clipPath id="clip0"><rect x="0" y="0" width="1280" height="720"/></clipPath></defs><g clip-path="url(#clip0)"><rect x="0" y="0" width="1280" height="720" fill="#FFFFFF"/><rect x="194.5" y="265.5" width="142" height="118" stroke="#000000" stroke-width="1.33333" stroke-miterlimit="8" fill="none"/><text font-family="Calibri,Calibri_MSFontService,sans-serif" font-weight="400" font-size="24" transform="translate(224.556 331)">frontent</text><rect x="539.5" y="265.5" width="142" height="118" stroke="#000000" stroke-width="1.33333" stroke-miterlimit="8" fill="none"/><text font-family="Calibri,Calibri_MSFontService,sans-serif" font-weight="400" font-size="24" transform="translate(569.341 331)">backend</text><rect x="539.5" y="524.5" width="142" height="118" stroke="#000000" stroke-width="1.33333" stroke-miterlimit="8" fill="none"/><text font-family="Calibri,Calibri_MSFontService,sans-serif" font-weight="400" font-size="24" transform="translate(567.788 576)">resource <tspan font-size="24" x="12.0067" y="29">server</tspan></text><rect x="539.5" y="0.500053" width="142" height="118" stroke="#000000" stroke-width="1.33333" stroke-miterlimit="8" fill="none"/><text font-family="Calibri,Calibri_MSFontService,sans-serif" font-weight="400" font-size="21" transform="translate(552.231 53)">a<tspan font-size="21" x="10.1667" y="0">uthorization</tspan><tspan font-size="21" x="30.8134" y="26">serve</tspan><tspan font-size="21" x="77.64" y="26">r</tspan></text><path d="M336.5 298.167 533.675 298.167 533.675 298.833 336.5 298.833ZM532.341 294.5 540.341 298.5 532.341 302.5Z"/><path d="M343.167 353.167 540.341 353.167 540.341 353.833 343.167 353.833ZM344.5 357.5 336.5 353.5 344.5 349.5Z"/><path d="M573.833 125.167 573.833 130.5 573.167 130.5 573.167 125.167ZM573.833 132.5 573.833 137.833 573.167 137.833 573.167 132.5ZM573.833 139.833 573.833 145.167 573.167 145.167 573.167 139.833ZM573.833 147.167 573.833 152.5 573.167 152.5 573.167 147.167ZM573.833 154.5 573.833 159.833 573.167 159.833 573.167 154.5ZM573.833 161.833 573.833 167.167 573.167 167.167 573.167 161.833ZM573.833 169.167 573.833 174.5 573.167 174.5 573.167 169.167ZM573.833 176.5 573.833 181.833 573.167 181.833 573.167 176.5ZM573.833 183.833 573.833 189.167 573.167 189.167 573.167 183.833ZM573.833 191.167 573.833 196.5 573.167 196.5 573.167 191.167ZM573.833 198.5 573.833 203.833 573.167 203.833 573.167 198.5ZM573.833 205.833 573.833 211.167 573.167 211.167 573.167 205.833ZM573.833 213.167 573.833 218.5 573.167 218.5 573.167 213.167ZM573.833 220.5 573.833 225.833 573.167 225.833 573.167 220.5ZM573.833 227.833 573.833 233.167 573.167 233.167 573.167 227.833ZM573.833 235.167 573.833 240.5 573.167 240.5 573.167 235.167ZM573.833 242.5 573.833 247.833 573.167 247.833 573.167 242.5ZM573.833 249.833 573.833 255.167 573.167 255.167 573.167 249.833ZM573.833 257.167 573.833 262.5 573.167 262.5 573.167 257.167ZM573.833 264.5 573.833 266.042 573.167 266.042 573.167 264.5ZM569.5 126.5 573.5 118.5 577.5 126.5Z"/><path d="M646.833 118.5 646.833 123.833 646.167 123.833 646.167 118.5ZM646.833 125.833 646.833 131.167 646.167 131.167 646.167 125.833ZM646.833 133.167 646.833 138.5 646.167 138.5 646.167 133.167ZM646.833 140.5 646.833 145.833 646.167 145.833 646.167 140.5ZM646.833 147.833 646.833 153.167 646.167 153.167 646.167 147.833ZM646.833 155.167 646.833 160.5 646.167 160.5 646.167 155.167ZM646.833 162.5 646.833 167.833 646.167 167.833 646.167 162.5ZM646.833 169.833 646.833 175.167 646.167 175.167 646.167 169.833ZM646.833 177.167 646.833 182.5 646.167 182.5 646.167 177.167ZM646.833 184.5 646.833 189.833 646.167 189.833 646.167 184.5ZM646.833 191.833 646.833 197.167 646.167 197.167 646.167 191.833ZM646.833 199.167 646.833 204.5 646.167 204.5 646.167 199.167ZM646.833 206.5 646.833 211.833 646.167 211.833 646.167 206.5ZM646.833 213.833 646.833 219.167 646.167 219.167 646.167 213.833ZM646.833 221.167 646.833 226.5 646.167 226.5 646.167 221.167ZM646.833 228.5 646.833 233.833 646.167 233.833 646.167 228.5ZM646.833 235.833 646.833 241.167 646.167 241.167 646.167 235.833ZM646.833 243.167 646.833 248.5 646.167 248.5 646.167 243.167ZM646.833 250.5 646.833 255.833 646.167 255.833 646.167 250.5ZM646.833 257.833 646.833 259.375 646.167 259.375 646.167 257.833ZM650.5 258.042 646.5 266.042 642.5 258.042Z"/><path d="M304.5 379.833 302.477 379.833 302.811 379.5 302.811 559.692 302.477 559.359 533.049 559.359 533.049 560.025 302.144 560.025 302.144 379.167 304.5 379.167ZM531.715 555.692 539.715 559.692 531.715 563.692Z"/><path d="M540.1 612.703 265.167 612.703 265.167 390.167 265.833 390.167 265.833 612.37 265.5 612.037 540.1 612.037ZM261.5 391.5 265.5 383.5 269.5 391.5Z"/><text font-family="Calibri,Calibri_MSFontService,sans-serif" font-weight="400" font-size="19" transform="translate(345.204 281)">(A) Access token request<tspan font-size="19" x="-3.63181" y="57">(D) Access token response</tspan><tspan font-size="19" x="92.5538" y="-91">(B) token request</tspan><tspan font-size="19" x="316.554" y="-91">(C) token response</tspan><tspan font-size="16" x="-23.3242" y="263">(E) Protected resource request</tspan><tspan font-size="16" x="-23.3242" y="314">(F) Protected resource request</tspan></text></g></svg>